<svg width="272" height="40" viewBox="0 0 272 40" fill="none" xmlns="http://www.w3.org/2000/svg">
<path fill-rule="evenodd" clip-rule="evenodd" d="M26.6667 20C26.6667 16.3181 23.682 13.3333 20.0001 13.3333L6.66675 13.3333C2.98485 13.3333 8.40863e-05 16.3181 8.37644e-05 20C8.34426e-05 23.6819 2.98485 26.6667 6.66675 26.6667L13.3334 26.6667L13.3334 33.3333C13.3334 37.0152 16.3182 40 20.0001 40C23.682 40 26.6667 37.0152 26.6667 33.3333L26.6667 20.0034C26.6667 20.0023 26.6667 20.0011 26.6667 20Z" fill="#00D1FF"/>
<g filter="url(#filter0_d_21_179)">
<path fill-rule="evenodd" clip-rule="evenodd" d="M13.3333 20C13.3333 23.6819 16.318 26.6667 19.9999 26.6667H33.3333C37.0152 26.6667 39.9999 23.6819 39.9999 20C39.9999 16.3181 37.0152 13.3333 33.3333 13.3333H26.6666V6.66667C26.6666 2.98477 23.6818 0 19.9999 0C16.318 0 13.3333 2.98476 13.3333 6.66666L13.3333 20Z" fill="#A8EFFF"/>
</g>
<path d="M72.976 19.22C71.832 19.22 70.7613 19.022 69.764 18.626C68.7667 18.2153 67.894 17.6507 67.146 16.932C66.4127 16.2133 65.8333 15.3773 65.408 14.424C64.9973 13.456 64.792 12.4147 64.792 11.3C64.792 10.1707 64.9973 9.12933 65.408 8.176C65.8333 7.208 66.42 6.36467 67.168 5.646C67.916 4.92733 68.7813 4.37 69.764 3.974C70.7613 3.56333 71.832 3.358 72.976 3.358C73.8267 3.358 74.648 3.47533 75.44 3.71C76.232 3.94467 76.9653 4.27467 77.64 4.7C78.3293 5.12533 78.916 5.63867 79.4 6.24L77.244 8.374C76.6867 7.68467 76.0413 7.164 75.308 6.812C74.5893 6.46 73.812 6.284 72.976 6.284C72.2867 6.284 71.6413 6.416 71.04 6.68C70.4387 6.92933 69.918 7.28133 69.478 7.736C69.038 8.176 68.6933 8.704 68.444 9.32C68.1947 9.92133 68.07 10.5813 68.07 11.3C68.07 12.004 68.1947 12.664 68.444 13.28C68.6933 13.8813 69.0453 14.4093 69.5 14.864C69.9547 15.304 70.4827 15.6487 71.084 15.898C71.7 16.1473 72.3673 16.272 73.086 16.272C73.8927 16.272 74.648 16.1033 75.352 15.766C76.056 15.4287 76.6793 14.9447 77.222 14.314L79.312 16.382C78.828 16.9687 78.2487 17.4747 77.574 17.9C76.8993 18.3253 76.166 18.6553 75.374 18.89C74.5967 19.11 73.7973 19.22 72.976 19.22ZM84.631 19.198C83.8097 19.198 83.0837 19.0513 82.453 18.758C81.8223 18.45 81.331 18.032 80.979 17.504C80.627 16.976 80.451 16.3673 80.451 15.678C80.451 14.578 80.8617 13.7273 81.683 13.126C82.519 12.51 83.663 12.202 85.115 12.202C86.1123 12.202 87.051 12.356 87.931 12.664V11.828C87.931 11.168 87.7257 10.6693 87.315 10.332C86.9043 9.99467 86.303 9.826 85.511 9.826C85.027 9.826 84.5063 9.90667 83.949 10.068C83.3917 10.2147 82.7463 10.4493 82.013 10.772L80.913 8.55C81.8223 8.13933 82.6877 7.83133 83.509 7.626C84.345 7.42067 85.181 7.318 86.017 7.318C87.557 7.318 88.7523 7.692 89.603 8.44C90.4683 9.17333 90.901 10.2147 90.901 11.564V19H87.931V18.186C87.4617 18.538 86.9557 18.7947 86.413 18.956C85.8703 19.1173 85.2763 19.198 84.631 19.198ZM83.311 15.612C83.311 16.052 83.5017 16.404 83.883 16.668C84.2643 16.9173 84.7703 17.042 85.401 17.042C85.8997 17.042 86.3617 16.9833 86.787 16.866C87.2123 16.734 87.5937 16.5433 87.931 16.294V14.622C87.5643 14.4753 87.183 14.3653 86.787 14.292C86.391 14.2187 85.9657 14.182 85.511 14.182C84.8217 14.182 84.279 14.314 83.883 14.578C83.5017 14.8273 83.311 15.172 83.311 15.612ZM93.1821 19V7.538H96.1961V8.484C97.0615 7.70667 98.1321 7.318 99.4081 7.318C100.303 7.318 101.087 7.516 101.762 7.912C102.451 8.29333 102.987 8.82867 103.368 9.518C103.749 10.1927 103.94 10.9847 103.94 11.894V19H100.926V12.334C100.926 11.586 100.713 10.9993 100.288 10.574C99.8628 10.134 99.2835 9.914 98.5501 9.914C98.0368 9.914 97.5821 10.0167 97.1861 10.222C96.7901 10.4127 96.4601 10.6913 96.1961 11.058V19H93.1821ZM109.875 19.198C109.054 19.198 108.328 19.0513 107.697 18.758C107.066 18.45 106.575 18.032 106.223 17.504C105.871 16.976 105.695 16.3673 105.695 15.678C105.695 14.578 106.106 13.7273 106.927 13.126C107.763 12.51 108.907 12.202 110.359 12.202C111.356 12.202 112.295 12.356 113.175 12.664V11.828C113.175 11.168 112.97 10.6693 112.559 10.332C112.148 9.99467 111.547 9.826 110.755 9.826C110.271 9.826 109.75 9.90667 109.193 10.068C108.636 10.2147 107.99 10.4493 107.257 10.772L106.157 8.55C107.066 8.13933 107.932 7.83133 108.753 7.626C109.589 7.42067 110.425 7.318 111.261 7.318C112.801 7.318 113.996 7.692 114.847 8.44C115.712 9.17333 116.145 10.2147 116.145 11.564V19H113.175V18.186C112.706 18.538 112.2 18.7947 111.657 18.956C111.114 19.1173 110.52 19.198 109.875 19.198ZM108.555 15.612C108.555 16.052 108.746 16.404 109.127 16.668C109.508 16.9173 110.014 17.042 110.645 17.042C111.144 17.042 111.606 16.9833 112.031 16.866C112.456 16.734 112.838 16.5433 113.175 16.294V14.622C112.808 14.4753 112.427 14.3653 112.031 14.292C111.635 14.2187 111.21 14.182 110.755 14.182C110.066 14.182 109.523 14.314 109.127 14.578C108.746 14.8273 108.555 15.172 108.555 15.612ZM123.728 19.154C122.643 19.154 121.66 18.89 120.78 18.362C119.9 17.834 119.196 17.13 118.668 16.25C118.155 15.3553 117.898 14.358 117.898 13.258C117.898 12.158 118.155 11.168 118.668 10.288C119.196 9.39333 119.908 8.68933 120.802 8.176C121.697 7.648 122.702 7.384 123.816 7.384C124.388 7.384 124.938 7.46467 125.466 7.626C125.994 7.77267 126.486 7.99267 126.94 8.286V3.6L129.954 3.094V19H126.984V18.054C126.046 18.7873 124.96 19.154 123.728 19.154ZM124.212 16.58C124.77 16.58 125.276 16.492 125.73 16.316C126.2 16.1253 126.603 15.8467 126.94 15.48V11.014C126.603 10.6767 126.2 10.4127 125.73 10.222C125.261 10.0313 124.755 9.936 124.212 9.936C123.582 9.936 123.01 10.0827 122.496 10.376C121.998 10.6547 121.602 11.0507 121.308 11.564C121.015 12.0627 120.868 12.6273 120.868 13.258C120.868 13.8887 121.015 14.4533 121.308 14.952C121.602 15.4507 121.998 15.8467 122.496 16.14C123.01 16.4333 123.582 16.58 124.212 16.58ZM132.305 19V7.538H135.319V19H132.305ZM133.801 6.174C133.332 6.174 132.929 6.00533 132.591 5.668C132.254 5.33067 132.085 4.92733 132.085 4.458C132.085 3.974 132.254 3.57067 132.591 3.248C132.929 2.91067 133.332 2.742 133.801 2.742C134.285 2.742 134.689 2.91067 135.011 3.248C135.349 3.57067 135.517 3.974 135.517 4.458C135.517 4.92733 135.349 5.33067 135.011 5.668C134.689 6.00533 134.285 6.174 133.801 6.174ZM141.328 19.198C140.507 19.198 139.781 19.0513 139.15 18.758C138.52 18.45 138.028 18.032 137.676 17.504C137.324 16.976 137.148 16.3673 137.148 15.678C137.148 14.578 137.559 13.7273 138.38 13.126C139.216 12.51 140.36 12.202 141.812 12.202C142.81 12.202 143.748 12.356 144.628 12.664V11.828C144.628 11.168 144.423 10.6693 144.012 10.332C143.602 9.99467 143 9.826 142.208 9.826C141.724 9.826 141.204 9.90667 140.646 10.068C140.089 10.2147 139.444 10.4493 138.71 10.772L137.61 8.55C138.52 8.13933 139.385 7.83133 140.206 7.626C141.042 7.42067 141.878 7.318 142.714 7.318C144.254 7.318 145.45 7.692 146.3 8.44C147.166 9.17333 147.598 10.2147 147.598 11.564V19H144.628V18.186C144.159 18.538 143.653 18.7947 143.11 18.956C142.568 19.1173 141.974 19.198 141.328 19.198ZM140.008 15.612C140.008 16.052 140.199 16.404 140.58 16.668C140.962 16.9173 141.468 17.042 142.098 17.042C142.597 17.042 143.059 16.9833 143.484 16.866C143.91 16.734 144.291 16.5433 144.628 16.294V14.622C144.262 14.4753 143.88 14.3653 143.484 14.292C143.088 14.2187 142.663 14.182 142.208 14.182C141.519 14.182 140.976 14.314 140.58 14.578C140.199 14.8273 140.008 15.172 140.008 15.612ZM149.879 19V7.538H152.893V8.484C153.759 7.70667 154.829 7.318 156.105 7.318C157 7.318 157.785 7.516 158.459 7.912C159.149 8.29333 159.684 8.82867 160.065 9.518C160.447 10.1927 160.637 10.9847 160.637 11.894V19H157.623V12.334C157.623 11.586 157.411 10.9993 156.985 10.574C156.56 10.134 155.981 9.914 155.247 9.914C154.734 9.914 154.279 10.0167 153.883 10.222C153.487 10.4127 153.157 10.6913 152.893 11.058V19H149.879ZM167.544 19V3.6H175.266C176.278 3.6 177.166 3.80533 177.928 4.216C178.706 4.62667 179.314 5.19867 179.754 5.932C180.194 6.65067 180.414 7.48667 180.414 8.44C180.414 9.34933 180.194 10.1633 179.754 10.882C179.314 11.6007 178.706 12.1653 177.928 12.576C177.151 12.9867 176.264 13.192 175.266 13.192H170.734V19H167.544ZM170.734 10.552H174.914C175.604 10.552 176.154 10.3613 176.564 9.98C176.99 9.59867 177.202 9.09267 177.202 8.462C177.202 7.81667 176.99 7.30333 176.564 6.922C176.154 6.54067 175.604 6.35 174.914 6.35H170.734V10.552ZM182.321 19V3.6L185.335 2.94V8.484C186.2 7.70667 187.271 7.318 188.547 7.318C189.441 7.318 190.226 7.516 190.901 7.912C191.59 8.29333 192.125 8.82867 192.507 9.518C192.888 10.1927 193.079 10.9847 193.079 11.894V19H190.065V12.334C190.065 11.586 189.852 10.9993 189.427 10.574C189.001 10.134 188.422 9.914 187.689 9.914C187.175 9.914 186.721 10.0167 186.325 10.222C185.929 10.4127 185.599 10.6913 185.335 11.058V19H182.321ZM199.014 19.198C198.192 19.198 197.466 19.0513 196.836 18.758C196.205 18.45 195.714 18.032 195.362 17.504C195.01 16.976 194.834 16.3673 194.834 15.678C194.834 14.578 195.244 13.7273 196.066 13.126C196.902 12.51 198.046 12.202 199.498 12.202C200.495 12.202 201.434 12.356 202.314 12.664V11.828C202.314 11.168 202.108 10.6693 201.698 10.332C201.287 9.99467 200.686 9.826 199.894 9.826C199.41 9.826 198.889 9.90667 198.332 10.068C197.774 10.2147 197.129 10.4493 196.396 10.772L195.296 8.55C196.205 8.13933 197.07 7.83133 197.892 7.626C198.728 7.42067 199.564 7.318 200.4 7.318C201.94 7.318 203.135 7.692 203.986 8.44C204.851 9.17333 205.284 10.2147 205.284 11.564V19H202.314V18.186C201.844 18.538 201.338 18.7947 200.796 18.956C200.253 19.1173 199.659 19.198 199.014 19.198ZM197.694 15.612C197.694 16.052 197.884 16.404 198.266 16.668C198.647 16.9173 199.153 17.042 199.784 17.042C200.282 17.042 200.744 16.9833 201.17 16.866C201.595 16.734 201.976 16.5433 202.314 16.294V14.622C201.947 14.4753 201.566 14.3653 201.17 14.292C200.774 14.2187 200.348 14.182 199.894 14.182C199.204 14.182 198.662 14.314 198.266 14.578C197.884 14.8273 197.694 15.172 197.694 15.612ZM207.565 19V7.538H210.579V8.814C210.946 8.31533 211.386 7.934 211.899 7.67C212.412 7.406 212.992 7.274 213.637 7.274C214.194 7.28867 214.612 7.37667 214.891 7.538V10.178C214.671 10.0753 214.429 10.002 214.165 9.958C213.901 9.89933 213.63 9.87 213.351 9.87C212.764 9.87 212.229 10.0167 211.745 10.31C211.261 10.6033 210.872 11.0213 210.579 11.564V19H207.565ZM216.545 19V7.538H219.559V8.418C220.381 7.68467 221.378 7.318 222.551 7.318C223.299 7.318 223.967 7.472 224.553 7.78C225.14 8.07333 225.624 8.49133 226.005 9.034C226.475 8.47667 227.025 8.05133 227.655 7.758C228.301 7.46467 229.012 7.318 229.789 7.318C230.655 7.318 231.41 7.516 232.055 7.912C232.715 8.29333 233.229 8.82867 233.595 9.518C233.977 10.1927 234.167 10.9847 234.167 11.894V19H231.175V12.334C231.175 11.586 230.977 10.9993 230.581 10.574C230.185 10.134 229.657 9.914 228.997 9.914C228.543 9.914 228.125 10.0093 227.743 10.2C227.377 10.3907 227.061 10.6767 226.797 11.058C226.812 11.19 226.827 11.322 226.841 11.454C226.856 11.586 226.863 11.7327 226.863 11.894V19H223.849V12.334C223.849 11.586 223.651 10.9993 223.255 10.574C222.874 10.134 222.353 9.914 221.693 9.914C221.239 9.914 220.828 10.002 220.461 10.178C220.109 10.354 219.809 10.618 219.559 10.97V19H216.545ZM240.113 19.198C239.292 19.198 238.566 19.0513 237.935 18.758C237.305 18.45 236.813 18.032 236.461 17.504C236.109 16.976 235.933 16.3673 235.933 15.678C235.933 14.578 236.344 13.7273 237.165 13.126C238.001 12.51 239.145 12.202 240.597 12.202C241.595 12.202 242.533 12.356 243.413 12.664V11.828C243.413 11.168 243.208 10.6693 242.797 10.332C242.387 9.99467 241.785 9.826 240.993 9.826C240.509 9.826 239.989 9.90667 239.431 10.068C238.874 10.2147 238.229 10.4493 237.495 10.772L236.395 8.55C237.305 8.13933 238.17 7.83133 238.991 7.626C239.827 7.42067 240.663 7.318 241.499 7.318C243.039 7.318 244.235 7.692 245.085 8.44C245.951 9.17333 246.383 10.2147 246.383 11.564V19H243.413V18.186C242.944 18.538 242.438 18.7947 241.895 18.956C241.353 19.1173 240.759 19.198 240.113 19.198ZM238.793 15.612C238.793 16.052 238.984 16.404 239.365 16.668C239.747 16.9173 240.253 17.042 240.883 17.042C241.382 17.042 241.844 16.9833 242.269 16.866C242.695 16.734 243.076 16.5433 243.413 16.294V14.622C243.047 14.4753 242.665 14.3653 242.269 14.292C241.873 14.2187 241.448 14.182 240.993 14.182C240.304 14.182 239.761 14.314 239.365 14.578C238.984 14.8273 238.793 15.172 238.793 15.612ZM254.143 19.22C253.013 19.22 251.994 18.9633 251.085 18.45C250.175 17.922 249.457 17.2107 248.929 16.316C248.401 15.4067 248.137 14.3947 248.137 13.28C248.137 12.1507 248.401 11.1387 248.929 10.244C249.457 9.34933 250.175 8.638 251.085 8.11C251.994 7.582 253.013 7.318 254.143 7.318C255.052 7.318 255.917 7.494 256.739 7.846C257.575 8.198 258.293 8.704 258.895 9.364L257.047 11.322C256.621 10.8527 256.174 10.508 255.705 10.288C255.25 10.0533 254.751 9.936 254.209 9.936C253.622 9.936 253.094 10.0827 252.625 10.376C252.17 10.6693 251.803 11.0653 251.525 11.564C251.261 12.0627 251.129 12.6347 251.129 13.28C251.129 13.896 251.261 14.4607 251.525 14.974C251.803 15.4727 252.185 15.8687 252.669 16.162C253.153 16.4407 253.688 16.58 254.275 16.58C254.788 16.58 255.265 16.4773 255.705 16.272C256.159 16.052 256.592 15.7293 257.003 15.304L258.807 17.196C258.22 17.8267 257.516 18.3253 256.695 18.692C255.873 19.044 255.023 19.22 254.143 19.22ZM261.496 23.73C261.232 23.73 260.975 23.7153 260.726 23.686C260.491 23.6713 260.293 23.6493 260.132 23.62V21.024C260.425 21.0827 260.777 21.112 261.188 21.112C262.288 21.112 263.05 20.5913 263.476 19.55L263.652 19.11L259.186 7.538H262.508L265.368 15.348L268.602 7.538H271.858L266.578 19.924C266.182 20.848 265.749 21.5887 265.28 22.146C264.81 22.7033 264.268 23.1067 263.652 23.356C263.05 23.6053 262.332 23.73 261.496 23.73Z" fill="white"/>
<path d="M66.8 37V34.32L63.94 30H65.61L67.57 33.04L69.54 30H71.12L68.25 34.33V37H66.8ZM77.5663 37.11C77.0463 37.11 76.5629 37.02 76.1163 36.84C75.6696 36.6533 75.2763 36.3967 74.9363 36.07C74.6029 35.7367 74.3396 35.3533 74.1463 34.92C73.9596 34.48 73.8663 34.0067 73.8663 33.5C73.8663 32.9933 73.9596 32.5233 74.1463 32.09C74.3396 31.65 74.6029 31.2667 74.9363 30.94C75.2763 30.6067 75.6696 30.35 76.1163 30.17C76.5629 29.9833 77.0463 29.89 77.5663 29.89C78.0863 29.89 78.5696 29.9833 79.0163 30.17C79.4696 30.35 79.8629 30.6067 80.1963 30.94C80.5363 31.2667 80.7996 31.65 80.9863 32.09C81.1729 32.5233 81.2663 32.9933 81.2663 33.5C81.2663 34.0067 81.1729 34.48 80.9863 34.92C80.7996 35.3533 80.5363 35.7367 80.1963 36.07C79.8629 36.3967 79.4696 36.6533 79.0163 36.84C78.5696 37.02 78.0863 37.11 77.5663 37.11ZM77.5663 35.78C77.8863 35.78 78.1796 35.7233 78.4463 35.61C78.7129 35.49 78.9463 35.33 79.1463 35.13C79.3463 34.9233 79.5029 34.68 79.6163 34.4C79.7296 34.12 79.7863 33.82 79.7863 33.5C79.7863 33.1733 79.7296 32.8733 79.6163 32.6C79.5029 32.32 79.3463 32.08 79.1463 31.88C78.9463 31.6733 78.7129 31.5133 78.4463 31.4C78.1796 31.28 77.8863 31.22 77.5663 31.22C77.2529 31.22 76.9629 31.28 76.6963 31.4C76.4296 31.5133 76.1963 31.6733 75.9963 31.88C75.7963 32.08 75.6396 32.32 75.5263 32.6C75.4129 32.8733 75.3563 33.17 75.3563 33.49C75.3563 33.8167 75.4129 34.12 75.5263 34.4C75.6396 34.68 75.7963 34.9233 75.9963 35.13C76.1963 35.33 76.4296 35.49 76.6963 35.61C76.9629 35.7233 77.2529 35.78 77.5663 35.78ZM88.361 37.1C87.7277 37.1 87.1777 36.9733 86.711 36.72C86.251 36.4667 85.8943 36.1067 85.641 35.64C85.3877 35.1667 85.261 34.6133 85.261 33.98V30H86.711V33.98C86.711 34.34 86.7777 34.6567 86.911 34.93C87.051 35.1967 87.2443 35.4033 87.491 35.55C87.7443 35.69 88.0377 35.76 88.371 35.76C88.7043 35.76 88.9943 35.69 89.241 35.55C89.4877 35.4033 89.6777 35.1967 89.811 34.93C89.951 34.6567 90.021 34.34 90.021 33.98V30H91.461V33.98C91.461 34.6067 91.3344 35.1567 91.081 35.63C90.8277 36.0967 90.4677 36.46 90.001 36.72C89.541 36.9733 88.9943 37.1 88.361 37.1ZM95.7171 37V30H99.1371C99.6104 30 100.027 30.0933 100.387 30.28C100.754 30.46 101.037 30.7133 101.237 31.04C101.444 31.3667 101.547 31.7433 101.547 32.17C101.547 32.6167 101.424 33.01 101.177 33.35C100.93 33.69 100.6 33.9433 100.187 34.11L101.737 37H100.117L98.7471 34.32H97.1671V37H95.7171ZM97.1671 33.13H99.0071C99.3338 33.13 99.5938 33.0433 99.7871 32.87C99.9871 32.6967 100.087 32.47 100.087 32.19C100.087 31.91 99.9871 31.6833 99.7871 31.51C99.5938 31.3367 99.3338 31.25 99.0071 31.25H97.1671V33.13Z" fill="#FFB4D8"/>
<path d="M110.716 37V30H114.006C114.479 30 114.893 30.08 115.246 30.24C115.599 30.4 115.876 30.6267 116.076 30.92C116.276 31.2067 116.376 31.54 116.376 31.92C116.376 32.2267 116.296 32.51 116.136 32.77C115.983 33.0233 115.773 33.23 115.506 33.39C115.846 33.55 116.116 33.7667 116.316 34.04C116.516 34.3133 116.616 34.6233 116.616 34.97C116.616 35.37 116.513 35.7233 116.306 36.03C116.106 36.3367 115.819 36.5767 115.446 36.75C115.079 36.9167 114.653 37 114.166 37H110.716ZM112.166 32.86H113.916C114.229 32.86 114.476 32.7867 114.656 32.64C114.843 32.4867 114.936 32.2833 114.936 32.03C114.936 31.7767 114.843 31.5767 114.656 31.43C114.476 31.2767 114.229 31.2 113.916 31.2H112.166V32.86ZM112.166 35.8H114.056C114.389 35.8 114.656 35.72 114.856 35.56C115.056 35.3933 115.156 35.1733 115.156 34.9C115.156 34.62 115.056 34.4 114.856 34.24C114.656 34.0733 114.389 33.99 114.056 33.99H112.166V35.8ZM120.73 37V30H126.11V31.26H122.18V32.86H124.77V34.08H122.18V35.74H126.15V37H120.73ZM132.775 37.1C132.209 37.1 131.655 36.9967 131.115 36.79C130.575 36.5767 130.095 36.2767 129.675 35.89L130.505 34.85C130.912 35.21 131.302 35.47 131.675 35.63C132.055 35.79 132.455 35.87 132.875 35.87C133.169 35.87 133.422 35.8367 133.635 35.77C133.849 35.6967 134.012 35.5933 134.125 35.46C134.245 35.3267 134.305 35.17 134.305 34.99C134.305 34.75 134.219 34.5667 134.045 34.44C133.872 34.3067 133.575 34.2033 133.155 34.13L131.765 33.89C131.172 33.79 130.719 33.58 130.405 33.26C130.099 32.94 129.945 32.5267 129.945 32.02C129.945 31.5867 130.055 31.21 130.275 30.89C130.502 30.57 130.819 30.3267 131.225 30.16C131.639 29.9867 132.129 29.9 132.695 29.9C133.209 29.9 133.719 29.9867 134.225 30.16C134.739 30.3333 135.192 30.5733 135.585 30.88L134.805 31.96C134.072 31.4 133.335 31.12 132.595 31.12C132.335 31.12 132.109 31.1533 131.915 31.22C131.722 31.2867 131.572 31.38 131.465 31.5C131.365 31.6133 131.315 31.75 131.315 31.91C131.315 32.1233 131.392 32.29 131.545 32.41C131.699 32.5233 131.955 32.61 132.315 32.67L133.635 32.89C134.335 33.0033 134.859 33.2267 135.205 33.56C135.552 33.8867 135.725 34.32 135.725 34.86C135.725 35.3133 135.605 35.71 135.365 36.05C135.125 36.3833 134.782 36.6433 134.335 36.83C133.895 37.01 133.375 37.1 132.775 37.1ZM141.447 37V31.28H139.087V30H145.247V31.28H142.897V37H141.447ZM157.703 37.11C157.183 37.11 156.699 37.02 156.253 36.84C155.806 36.6533 155.413 36.3967 155.073 36.07C154.739 35.7367 154.476 35.3533 154.283 34.92C154.096 34.48 154.003 34.0067 154.003 33.5C154.003 32.9933 154.096 32.5233 154.283 32.09C154.476 31.65 154.739 31.2667 155.073 30.94C155.413 30.6067 155.806 30.35 156.253 30.17C156.699 29.9833 157.183 29.89 157.703 29.89C158.223 29.89 158.706 29.9833 159.153 30.17C159.606 30.35 159.999 30.6067 160.333 30.94C160.673 31.2667 160.936 31.65 161.123 32.09C161.309 32.5233 161.403 32.9933 161.403 33.5C161.403 34.0067 161.309 34.48 161.123 34.92C160.936 35.3533 160.673 35.7367 160.333 36.07C159.999 36.3967 159.606 36.6533 159.153 36.84C158.706 37.02 158.223 37.11 157.703 37.11ZM157.703 35.78C158.023 35.78 158.316 35.7233 158.583 35.61C158.849 35.49 159.083 35.33 159.283 35.13C159.483 34.9233 159.639 34.68 159.753 34.4C159.866 34.12 159.923 33.82 159.923 33.5C159.923 33.1733 159.866 32.8733 159.753 32.6C159.639 32.32 159.483 32.08 159.283 31.88C159.083 31.6733 158.849 31.5133 158.583 31.4C158.316 31.28 158.023 31.22 157.703 31.22C157.389 31.22 157.099 31.28 156.833 31.4C156.566 31.5133 156.333 31.6733 156.133 31.88C155.933 32.08 155.776 32.32 155.663 32.6C155.549 32.8733 155.493 33.17 155.493 33.49C155.493 33.8167 155.549 34.12 155.663 34.4C155.776 34.68 155.933 34.9233 156.133 35.13C156.333 35.33 156.566 35.49 156.833 35.61C157.099 35.7233 157.389 35.78 157.703 35.78ZM165.507 37V30H170.917V31.26H166.957V32.91H169.587V34.13H166.957V37H165.507ZM174.994 37V30H180.404V31.26H176.444V32.91H179.074V34.13H176.444V37H174.994ZM184.481 37V30H189.861V31.26H185.931V32.86H188.521V34.08H185.931V35.74H189.901V37H184.481ZM194.026 37V30H197.446C197.919 30 198.336 30.0933 198.696 30.28C199.063 30.46 199.346 30.7133 199.546 31.04C199.753 31.3667 199.856 31.7433 199.856 32.17C199.856 32.6167 199.733 33.01 199.486 33.35C199.239 33.69 198.909 33.9433 198.496 34.11L200.046 37H198.426L197.056 34.32H195.476V37H194.026ZM195.476 33.13H197.316C197.643 33.13 197.903 33.0433 198.096 32.87C198.296 32.6967 198.396 32.47 198.396 32.19C198.396 31.91 198.296 31.6833 198.096 31.51C197.903 31.3367 197.643 31.25 197.316 31.25H195.476V33.13ZM206.482 37.1C205.915 37.1 205.362 36.9967 204.822 36.79C204.282 36.5767 203.802 36.2767 203.382 35.89L204.212 34.85C204.618 35.21 205.008 35.47 205.382 35.63C205.762 35.79 206.162 35.87 206.582 35.87C206.875 35.87 207.128 35.8367 207.342 35.77C207.555 35.6967 207.718 35.5933 207.832 35.46C207.952 35.3267 208.012 35.17 208.012 34.99C208.012 34.75 207.925 34.5667 207.752 34.44C207.578 34.3067 207.282 34.2033 206.862 34.13L205.472 33.89C204.878 33.79 204.425 33.58 204.112 33.26C203.805 32.94 203.652 32.5267 203.652 32.02C203.652 31.5867 203.762 31.21 203.982 30.89C204.208 30.57 204.525 30.3267 204.932 30.16C205.345 29.9867 205.835 29.9 206.402 29.9C206.915 29.9 207.425 29.9867 207.932 30.16C208.445 30.3333 208.898 30.5733 209.292 30.88L208.512 31.96C207.778 31.4 207.042 31.12 206.302 31.12C206.042 31.12 205.815 31.1533 205.622 31.22C205.428 31.2867 205.278 31.38 205.172 31.5C205.072 31.6133 205.022 31.75 205.022 31.91C205.022 32.1233 205.098 32.29 205.252 32.41C205.405 32.5233 205.662 32.61 206.022 32.67L207.342 32.89C208.042 33.0033 208.565 33.2267 208.912 33.56C209.258 33.8867 209.432 34.32 209.432 34.86C209.432 35.3133 209.312 35.71 209.072 36.05C208.832 36.3833 208.488 36.6433 208.042 36.83C207.602 37.01 207.082 37.1 206.482 37.1ZM221.932 37.11C221.412 37.11 220.929 37.02 220.482 36.84C220.035 36.6533 219.642 36.3967 219.302 36.07C218.969 35.7367 218.705 35.3533 218.512 34.92C218.325 34.48 218.232 34.0067 218.232 33.5C218.232 32.9933 218.325 32.5233 218.512 32.09C218.705 31.65 218.969 31.2667 219.302 30.94C219.642 30.6067 220.035 30.35 220.482 30.17C220.929 29.9833 221.412 29.89 221.932 29.89C222.452 29.89 222.935 29.9833 223.382 30.17C223.835 30.35 224.229 30.6067 224.562 30.94C224.902 31.2667 225.165 31.65 225.352 32.09C225.539 32.5233 225.632 32.9933 225.632 33.5C225.632 34.0067 225.539 34.48 225.352 34.92C225.165 35.3533 224.902 35.7367 224.562 36.07C224.229 36.3967 223.835 36.6533 223.382 36.84C222.935 37.02 222.452 37.11 221.932 37.11ZM221.932 35.78C222.252 35.78 222.545 35.7233 222.812 35.61C223.079 35.49 223.312 35.33 223.512 35.13C223.712 34.9233 223.869 34.68 223.982 34.4C224.095 34.12 224.152 33.82 224.152 33.5C224.152 33.1733 224.095 32.8733 223.982 32.6C223.869 32.32 223.712 32.08 223.512 31.88C223.312 31.6733 223.079 31.5133 222.812 31.4C222.545 31.28 222.252 31.22 221.932 31.22C221.619 31.22 221.329 31.28 221.062 31.4C220.795 31.5133 220.562 31.6733 220.362 31.88C220.162 32.08 220.005 32.32 219.892 32.6C219.779 32.8733 219.722 33.17 219.722 33.49C219.722 33.8167 219.779 34.12 219.892 34.4C220.005 34.68 220.162 34.9233 220.362 35.13C220.562 35.33 220.795 35.49 221.062 35.61C221.329 35.7233 221.619 35.78 221.932 35.78ZM229.737 37V30H231.117L234.597 34.52V30H235.957V37H234.677L231.107 32.32V37H229.737ZM240.327 37V30H241.777V35.72H245.607V37H240.327ZM249.706 37V30H251.156V37H249.706ZM255.531 37V30H256.911L260.391 34.52V30H261.751V37H260.471L256.901 32.32V37H255.531ZM266.121 37V30H271.501V31.26H267.571V32.86H270.161V34.08H267.571V35.74H271.541V37H266.121Z" fill="#FF218C"/>
<defs>
<filter id="filter0_d_21_179" x="9.33325" y="0" width="34.6666" height="34.6667" filterUnits="userSpaceOnUse" color-interpolation-filters="sRGB">
<feFlood flood-opacity="0" result="BackgroundImageFix"/>
<feColorMatrix in="SourceAlpha" type="matrix" values="0 0 0 0 0 0 0 0 0 0 0 0 0 0 0 0 0 0 127 0" result="hardAlpha"/>
<feOffset dy="4"/>
<feGaussianBlur stdDeviation="2"/>
<feComposite in2="hardAlpha" operator="out"/>
<feColorMatrix type="matrix" values="0 0 0 0 0 0 0 0 0 0 0 0 0 0 0 0 0 0 0.2 0"/>
<feBlend mode="normal" in2="BackgroundImageFix" result="effect1_dropShadow_21_179"/>
<feBlend mode="normal" in="SourceGraphic" in2="effect1_dropShadow_21_179" result="shape"/>
</filter>
</defs>
</svg>
