<svg width="328" height="330" viewBox="0 0 328 330" fill="none" xmlns="http://www.w3.org/2000/svg">
<path d="M259.339 194.504C259.339 158.697 230.311 129.669 194.504 129.669H64.8347C29.0275 129.669 3.13037e-06 158.697 0 194.504C-3.13037e-06 230.311 29.0274 259.339 64.8347 259.339H129.669V324.173C129.669 359.981 158.697 389.008 194.504 389.008C230.311 389.008 259.339 359.981 259.339 324.173V194.504Z" fill="#A8EFFF" fill-opacity="0.02"/>
<path d="M129.668 194.504C129.668 230.311 158.695 259.339 194.502 259.339H324.172C359.979 259.339 389.006 230.311 389.006 194.504C389.006 158.697 359.979 129.669 324.172 129.669H259.337V64.8347C259.337 29.0275 230.31 0 194.502 0C158.695 0 129.668 29.0274 129.668 64.8346V194.504Z" fill="#A8EFFF" fill-opacity="0.02"/>
</svg>
