<svg width="970" height="891" viewBox="0 0 970 891" fill="none" xmlns="http://www.w3.org/2000/svg">
<path d="M625.003 517.502C625.003 422.233 547.772 345.001 452.502 345.001H107.501C12.2312 345.001 -65 422.233 -65 517.502C-65 612.772 12.2311 690.003 107.501 690.003H280.001V862.504C280.001 957.773 357.233 1035 452.502 1035C547.772 1035 625.003 957.773 625.003 862.504L625.003 517.502Z" fill="#A8EFFF" fill-opacity="0.02"/>
<path d="M279.997 517.502C279.997 612.772 357.228 690.003 452.498 690.003H797.499C892.769 690.003 970 612.772 970 517.502C970 422.233 892.769 345.001 797.499 345.001H624.999V172.501C624.999 77.2312 547.767 0 452.498 0C357.228 0 279.997 77.2311 279.997 172.501V517.502Z" fill="#A8EFFF" fill-opacity="0.02"/>
</svg>
